<svg width="800" height="800" viewBox="0 0 800 800" fill="none" xmlns="http://www.w3.org/2000/svg">
<path d="M714.233 700.3C719.765 700.3 724.998 697.809 728.481 693.509C731.965 689.212 733.323 683.575 732.18 678.165L720.629 623.501C727.207 617.137 731.343 608.251 731.343 598.372C731.343 587.972 726.71 578.747 719.521 572.339V382.509L673.216 411.164V572.339C666.027 578.747 661.393 587.972 661.393 598.372C661.393 608.253 665.53 617.138 672.109 623.501L660.556 678.165C659.413 683.576 660.773 689.213 664.255 693.509C667.738 697.806 672.971 700.3 678.503 700.3H714.233ZM729.928 271.737L428.692 85.2623C419.869 79.828 409.924 77.1 399.979 77.1C390.034 77.1 380.081 79.8257 371.313 85.2623L70.072 271.737C62.0282 276.714 57.1428 285.505 57.1428 294.966C57.1428 304.429 62.0282 313.222 70.072 318.207L371.311 504.683C380.08 510.123 390.032 512.846 399.978 512.846C409.923 512.846 419.869 510.12 428.69 504.683L729.928 318.207C737.972 313.225 742.857 304.429 742.857 294.966C742.857 285.505 737.972 276.711 729.928 271.737ZM399.978 559.147C381.213 559.147 362.899 553.936 346.935 544.055L171.221 435.274V622.586C171.221 678.023 273.687 722.9 399.978 722.9C526.313 722.9 628.771 678.022 628.771 622.586V435.274L453.064 544.055C437.1 553.936 418.742 559.147 399.978 559.147Z" fill="white"/>
</svg>
