<svg width="800" height="800" viewBox="0 0 800 800" fill="none" xmlns="http://www.w3.org/2000/svg">
<path fill-rule="evenodd" clip-rule="evenodd" d="M550 235.433C550 341.933 485.667 433.333 400 433.333C314.267 433.333 250 341.933 250 235.4C250 128.933 305.333 66.6667 400 66.6667C494.667 66.6667 550 128.9 550 235.433ZM136.733 671.4C149.567 686.667 204.833 733.333 400 733.333C595.167 733.333 650.4 686.667 663.267 671.433C664.46 669.969 665.342 668.277 665.858 666.46C666.373 664.643 666.513 662.739 666.267 660.867C663.333 631.467 636.867 500 400 500C163.133 500 136.667 631.467 133.7 660.867C133.459 662.742 133.603 664.646 134.125 666.463C134.646 668.281 135.534 669.939 136.733 671.4Z" fill="white"/>
</svg>
